<?xml version="1.0" encoding="utf-8"?>
<!-- Generator: Adobe Illustrator 25.4.1, SVG Export Plug-In . SVG Version: 6.00 Build 0)  -->
<svg version="1.0" id="katman_1" xmlns="http://www.w3.org/2000/svg" xmlns:xlink="http://www.w3.org/1999/xlink" x="0px" y="0px"
	 viewBox="0 0 1024 768" style="enable-background:new 0 0 1024 768;" xml:space="preserve">
<style type="text/css">
	.st0{fill:#EB1F1F;} /* This is the red color for the logo */
	.st1{fill:#FFFFFF;} /* White color for the text */
</style>
<g>
	<path class="st0" d="M166.8,426.3c7.3-0.9,14.3-3.2,20.7-6.8c15.8-8.8,24.8-23.8,25.5-42.4v-1.7h22c-1.3-11.1-5.6-21.2-11.8-29.9
		l-22.3,14.3c6.8,10.7,7.7,22.3,2.4,34.2C197.2,408.3,183,420.5,166.8,426.3"/>
	<path class="st0" d="M235.4,378.8h-19c-1.3,18.8-11.1,34.7-27.2,43.6c-9.2,5.1-19.7,7.7-30.4,7.7c-8.3,0-16.7-1.5-24.8-4.5
		c9.8,6,20.7,9.4,31.9,9.4h0.2c20.3,0,38.7-10.7,49-28.9l0.9-1.5l12.6,8.1c4.5-8.8,6.9-18.6,6.9-29.1
		C235.5,382,235.4,380.5,235.4,378.8"/>
	<path class="st0" d="M166.1,438.3L166.1,438.3c-20.5,0-39.6-10.1-53.1-27.4c10.3,21.8,32.5,37,58.2,37c23.8,0,44.7-13,55.8-32.3
		l-10-6.2C205.9,427.4,187.1,438.3,166.1,438.3"/>
	<path class="st0" d="M171.1,451.3c-37.4,0-67.8-30.2-67.8-67.8c0-37.4,30.2-67.8,67.8-67.8s67.8,30.2,67.8,67.8
		C238.9,420.9,208.5,451.3,171.1,451.3 M171.1,290.4c-51.4,0-93.1,41.7-93.1,93.1s41.7,93.1,93.1,93.1s93.1-41.7,93.1-93.1
		S222.6,290.4,171.1,290.4"/>
</g>
<g class="st1"> <!-- Changed the text color to white -->
	<path d="M914.7,417.7v-16H879v-16H911v-14.8H879v-14.6h33.8v-15.6H861v77H914.7z M817.8,369c-0.8,1.3-1.9,2.3-3.2,2.8
		c-1.3,0.6-2.8,1.1-4.3,1.3c-1.7,0.2-3.2,0.4-4.7,0.4h-8.8v-18h10c1.3,0,2.8,0.2,4.3,0.4c1.5,0.2,2.8,0.6,4.1,1.3
		c1.1,0.6,2.3,1.5,3,2.6c0.8,1.1,1.1,2.6,1.1,4.3C819.1,366.2,818.8,367.7,817.8,369 M841.7,417.7l-20.1-33
		c5.1-1.5,8.8-4.1,11.8-7.7c2.8-3.6,4.3-7.9,4.3-13.1c0-4.5-0.8-8.1-2.4-11.1c-1.7-3-3.9-5.4-6.8-7.1c-2.8-1.9-6-3-9.4-3.9
		c-3.6-0.8-7.1-1.1-10.9-1.1h-29.3v77h18.2v-30.4h6.4l16.7,30.6H841.7z M736.7,388.4c-1.1,3-2.6,5.4-4.5,7.5
		c-1.9,2.1-4.3,3.8-6.9,4.9c-2.6,1.1-5.6,1.9-8.8,1.9c-3.2,0-6.2-0.6-8.8-1.9c-2.6-1.1-5.1-2.8-6.9-4.9c-1.9-2.1-3.4-4.7-4.5-7.5
		c-1.1-3-1.7-6.2-1.7-9.6s0.6-6.4,1.5-9.4c1.1-2.8,2.6-5.4,4.5-7.5c1.9-2.1,4.3-3.8,6.9-4.9c2.6-1.1,5.6-1.9,8.8-1.9s6.2,0.6,9,1.9
		c2.6,1.1,5.1,2.8,6.9,4.9c1.9,2.1,3.4,4.5,4.5,7.5c1.1,2.8,1.7,6,1.7,9.4C738.4,382.2,737.8,385.4,736.7,388.4 M755.1,362.1
		c-2.1-4.9-5.1-9.2-8.8-12.6c-3.8-3.6-8.3-6.2-13.3-8.1c-5.1-1.9-10.7-2.8-16.7-2.8c-6,0-11.6,0.9-16.7,2.8
		c-5.1,1.9-9.6,4.5-13.3,8.1c-3.8,3.6-6.6,7.7-8.8,12.6c-2.1,4.9-3.2,10.5-3.2,16.7c0,6,1.1,11.6,3.2,16.7c2.1,5.1,5.1,9.4,8.8,13
		c3.8,3.6,8.1,6.4,13.3,8.3c5.1,1.9,10.7,3,16.7,3s11.6-0.9,16.7-3c5.1-1.9,9.6-4.7,13.3-8.3c3.8-3.6,6.6-7.9,8.8-13
		c2.1-5.1,3.2-10.5,3.2-16.7S757.2,367,755.1,362.1 M663.3,407l-13-12.2c-1.7,2.3-3.9,4.1-6.6,5.6c-2.8,1.5-6,2.3-9.8,2.3
		c-3.2,0-6.2-0.6-8.8-1.7c-2.6-1.1-5.1-2.8-6.9-4.9c-1.9-2.1-3.4-4.5-4.5-7.5c-1.1-2.8-1.7-6-1.7-9.6c0-3.4,0.6-6.6,1.7-9.4
		s2.6-5.3,4.5-7.5c1.9-2.1,4.3-3.8,6.9-4.9c2.6-1.1,5.6-1.9,9-1.9c3,0,5.8,0.6,8.6,1.7c2.8,1.1,5.1,3,6.8,5.3l12.6-12.6
		c-3.2-3.8-7.5-6.6-12.8-8.4s-10.5-2.8-16-2.8c-5.8,0-11.3,0.9-16.3,2.8c-5.1,1.9-9.6,4.5-13.3,8.1s-6.8,7.7-8.8,12.8
		s-3.2,10.5-3.2,16.7c0,6,1.1,11.5,3.2,16.5c2.1,5.1,5.1,9.4,8.6,13c3.8,3.6,8.1,6.4,13.1,8.3s10.5,3,16.5,3
		c6.6,0,12.2-1.1,17.3-3.4C655.6,413.9,659.7,410.9,663.3,407 M574.5,417.7v-16h-35.7v-16h31.9v-14.8h-31.9v-14.6h33.8v-15.6h-51.8
		v77H574.5z M500.3,356.5v-16h-62.2v16h21.8v61h18.6v-61H500.3z M417.9,340.7h-18.8v77h18.8V340.7z M376.6,348.2
		c-3.4-3.2-7.3-5.4-11.8-7.1c-4.5-1.5-9-2.4-13.3-2.4c-3.6,0-7.1,0.4-10.7,1.3c-3.6,0.9-6.8,2.3-9.6,4.3c-2.8,1.9-5.1,4.5-6.8,7.5
		c-1.7,3-2.6,6.8-2.6,10.9c0,3.6,0.6,6.4,1.7,8.8c1.1,2.4,2.6,4.5,4.5,6.2c1.9,1.7,3.9,3.2,6.4,4.1c2.4,1.1,4.7,2.1,7.3,2.8
		c2.4,0.8,4.9,1.5,6.8,2.3c2.1,0.8,3.6,1.5,5.1,2.3c1.3,0.8,2.4,1.7,3.2,2.8c0.8,0.9,1.1,2.3,1.1,3.8s-0.4,2.8-0.9,3.9
		s-1.3,1.9-2.3,2.6c-0.9,0.6-2.1,1.1-3.4,1.5s-2.6,0.4-3.9,0.4c-3,0-6.2-0.8-9.2-2.3c-3-1.5-5.6-3.6-7.5-5.8l-12.2,12.4
		c3.4,3.6,7.7,6.2,12.8,8.3c5.1,1.9,10.5,2.8,16,2.8c3.8,0,7.5-0.6,10.9-1.5c3.6-0.9,6.8-2.6,9.4-4.7c2.8-2.1,4.9-4.7,6.6-8.1
		c1.7-3.2,2.4-7.1,2.4-11.5c0-3.8-0.8-7.1-2.3-9.6c-1.5-2.6-3.4-4.7-5.8-6.4c-2.3-1.7-4.9-3.2-7.7-4.1c-2.8-1.1-5.6-2.1-8.1-2.8
		c-1.9-0.6-3.4-1.1-4.9-1.7c-1.5-0.6-2.6-1.1-3.8-1.9c-1.1-0.6-1.9-1.5-2.4-2.3c-0.6-0.9-0.8-1.9-0.8-3.2c0-1.5,0.4-2.8,1.1-3.8
		c0.8-0.9,1.5-1.7,2.6-2.4c0.9-0.6,2.1-1.1,3.4-1.3c1.3-0.2,2.4-0.4,3.8-0.4c2.4,0,4.9,0.6,7.5,1.9c2.6,1.1,4.7,2.8,6.2,4.9
		L376.6,348.2z"/>
	<path d="M934.8,347.8v-2.4h1.3c0.4,0,0.8,0,1.1,0.2s0.6,0.4,0.6,0.9c0,0.6-0.2,0.9-0.6,0.9c-0.4,0.2-0.8,0.2-1.3,0.2h-1.1V347.8z
		 M933.3,352.7h1.5v-3.6h1.1l2.1,3.6h1.9l-2.3-3.8c0.6-0.2,1.1-0.4,1.5-0.8c0.4-0.4,0.6-0.9,0.6-1.5c0-0.4,0-0.9-0.2-1.1
		c-0.2-0.4-0.4-0.6-0.8-0.8c-0.4-0.2-0.6-0.4-0.9-0.4s-0.8-0.2-1.1-0.2h-3v8.4H933.3z M930.3,345.9c0.4-0.8,0.8-1.5,1.3-2.1
		c0.6-0.6,1.3-1.1,2.1-1.3c0.8-0.4,1.7-0.6,2.4-0.6c0.9,0,1.7,0.2,2.4,0.6c0.8,0.4,1.5,0.8,2.1,1.3s1.1,1.3,1.3,2.1
		c0.4,0.8,0.6,1.7,0.6,2.4c0,0.9-0.2,1.7-0.6,2.4c-0.4,0.8-0.8,1.5-1.3,2.1c-0.6,0.6-1.3,1.1-2.1,1.3c-0.8,0.4-1.7,0.6-2.4,0.6
		c-0.9,0-1.7-0.2-2.4-0.6c-0.8-0.4-1.5-0.8-2.1-1.3c-0.6-0.6-1.1-1.3-1.3-2.1c-0.4-0.8-0.6-1.7-0.6-2.4
		C929.7,347.4,929.9,346.7,930.3,345.9 M929.2,351.4c0.4,0.9,0.9,1.7,1.7,2.4c0.8,0.8,1.5,1.1,2.4,1.7c0.9,0.4,1.9,0.6,3,0.6
		s2.1-0.2,3-0.6c0.9-0.4,1.7-0.9,2.4-1.7c0.8-0.8,1.3-1.5,1.7-2.4c0.4-0.9,0.6-1.9,0.6-3s-0.2-2.1-0.6-3c-0.4-0.9-0.9-1.7-1.7-2.4
		c-0.8-0.8-1.5-1.3-2.4-1.7c-0.9-0.4-1.9-0.6-3-0.6s-2.1,0.2-3,0.6c-0.9,0.4-1.7,0.9-2.4,1.7c-0.8,0.8-1.3,1.5-1.7,2.4
		s-0.6,1.9-0.6,3C928.6,349.5,928.8,350.5,929.2,351.4"/>
</g>
</svg>